<svg width="28" height="29" viewBox="0 0 28 29" fill="none" xmlns="http://www.w3.org/2000/svg">
<path d="M10.138 24.1251H5.25C5.01794 24.1251 4.79538 24.033 4.63128 23.8689C4.46719 23.7048 4.375 23.4822 4.375 23.2501V18.3622C4.37511 18.1304 4.46715 17.9082 4.63094 17.7442L18.1191 4.25608C18.2831 4.09211 18.5056 4 18.7376 4C18.9695 4 19.192 4.09211 19.3561 4.25608L24.2441 9.14077C24.408 9.30484 24.5001 9.52732 24.5001 9.75928C24.5001 9.99125 24.408 10.2137 24.2441 10.3778L10.7559 23.8692C10.592 24.033 10.3697 24.125 10.138 24.1251Z" stroke="#FEA910" stroke-width="2" stroke-linecap="round" stroke-linejoin="round"/>
<path d="M14.875 7.5L21 13.625" stroke="#FEA910" stroke-width="2" stroke-linecap="round" stroke-linejoin="round"/>
<path d="M17.9375 10.5625L7.4375 21.0625" stroke="#FEA910" stroke-width="2" stroke-linecap="round" stroke-linejoin="round"/>
<path d="M10.4441 24.0691L4.43066 18.0557" stroke="#FEA910" stroke-width="2" stroke-linecap="round" stroke-linejoin="round"/>
</svg>
