<svg width="24" height="24" viewBox="0 0 24 24" fill="none" xmlns="http://www.w3.org/2000/svg">
<g clip-path="url(#clip0_12_452)">
<path d="M5.05549 3.24544C4.98962 3.1712 4.90968 3.11077 4.82029 3.06765C4.7309 3.02453 4.63383 2.99958 4.53473 2.99425C4.43562 2.98892 4.33645 3.00331 4.24295 3.03659C4.14944 3.06987 4.06348 3.12137 3.99003 3.18812C3.91658 3.25487 3.85711 3.33554 3.81506 3.42544C3.77302 3.51534 3.74924 3.61269 3.74509 3.71186C3.74095 3.81102 3.75653 3.91002 3.79093 4.00311C3.82533 4.09621 3.87786 4.18155 3.94549 4.25419L5.74924 6.23888C2.34424 8.32857 0.879862 11.5498 0.815174 11.6961C0.772531 11.792 0.750496 11.8958 0.750496 12.0008C0.750496 12.1057 0.772531 12.2095 0.815174 12.3054C0.847987 12.3795 1.64205 14.1401 3.40736 15.9054C5.75955 18.2567 8.73049 19.4998 12.0005 19.4998C13.6811 19.5094 15.3447 19.1634 16.882 18.4845L18.9445 20.7542C19.0104 20.8284 19.0904 20.8889 19.1797 20.932C19.2691 20.9751 19.3662 21.0001 19.4653 21.0054C19.5644 21.0107 19.6636 20.9963 19.7571 20.9631C19.8506 20.9298 19.9366 20.8783 20.01 20.8115C20.0835 20.7448 20.1429 20.6641 20.185 20.5742C20.227 20.4843 20.2508 20.3869 20.2549 20.2878C20.2591 20.1886 20.2435 20.0896 20.2091 19.9965C20.1747 19.9034 20.1222 19.8181 20.0546 19.7454L5.05549 3.24544ZM9.49267 10.3554L13.3992 14.6539C12.811 14.9634 12.1365 15.0687 11.4819 14.9534C10.8272 14.838 10.2295 14.5085 9.78238 14.0166C9.33531 13.5247 9.06427 12.8982 9.01183 12.2355C8.9594 11.5729 9.12853 10.9116 9.49267 10.3554ZM12.0005 17.9998C9.11486 17.9998 6.59392 16.9508 4.50705 14.8826C3.65047 14.0314 2.92194 13.0603 2.34424 11.9998C2.78392 11.1758 4.18736 8.86951 6.7833 7.37044L8.4708 9.22201C7.81749 10.0587 7.48102 11.0995 7.52086 12.1603C7.5607 13.2211 7.97429 14.2337 8.68852 15.019C9.40275 15.8044 10.3716 16.312 11.4239 16.4521C12.4762 16.5921 13.5441 16.3557 14.4389 15.7845L15.8199 17.3033C14.6011 17.7708 13.3058 18.0071 12.0005 17.9998ZM12.563 9.05326C12.3676 9.01596 12.1949 8.90256 12.0831 8.73799C11.9713 8.57343 11.9294 8.37119 11.9667 8.17576C12.004 7.98032 12.1174 7.80771 12.282 7.6959C12.4466 7.58408 12.6488 7.54221 12.8442 7.57951C13.8001 7.76482 14.6705 8.25418 15.3255 8.97459C15.9805 9.695 16.3851 10.6079 16.4789 11.577C16.4974 11.775 16.4365 11.9723 16.3096 12.1255C16.1827 12.2786 16.0001 12.375 15.802 12.3936C15.7786 12.3949 15.7552 12.3949 15.7317 12.3936C15.5443 12.3944 15.3633 12.3249 15.2245 12.199C15.0857 12.073 14.9991 11.8996 14.9817 11.7129C14.9186 11.0683 14.6491 10.4613 14.2133 9.98208C13.7775 9.50288 13.1987 9.17713 12.563 9.05326ZM23.183 12.3054C23.1436 12.3936 22.1939 14.4964 20.0555 16.4117C19.9824 16.4792 19.8966 16.5315 19.8032 16.5656C19.7097 16.5996 19.6103 16.6148 19.511 16.6101C19.4116 16.6053 19.3141 16.5809 19.2243 16.5382C19.1344 16.4954 19.054 16.4352 18.9876 16.3611C18.9213 16.287 18.8703 16.2004 18.8378 16.1064C18.8052 16.0124 18.7917 15.9128 18.7979 15.8135C18.8042 15.7142 18.8302 15.6172 18.8744 15.528C18.9185 15.4388 18.98 15.3594 19.0552 15.2942C20.1043 14.3516 20.9856 13.2377 21.6614 11.9998C21.0824 10.9384 20.3523 9.96665 19.4939 9.11513C17.407 7.04888 14.8861 5.99982 12.0005 5.99982C11.3925 5.99908 10.7854 6.04831 10.1855 6.14701C10.0879 6.16426 9.98791 6.16201 9.89122 6.14039C9.79453 6.11877 9.70308 6.07821 9.62216 6.02105C9.54124 5.96388 9.47244 5.89125 9.41975 5.80735C9.36706 5.72345 9.33151 5.62994 9.31516 5.53222C9.29881 5.4345 9.30199 5.33451 9.3245 5.23803C9.34702 5.14155 9.38843 5.05048 9.44634 4.97009C9.50425 4.8897 9.57751 4.82158 9.6619 4.76967C9.74629 4.71775 9.84012 4.68307 9.93799 4.66763C10.6197 4.55507 11.3095 4.49894 12.0005 4.49982C15.2705 4.49982 18.2414 5.74294 20.5936 8.09513C22.3589 9.86044 23.153 11.622 23.1858 11.6961C23.2284 11.792 23.2505 11.8958 23.2505 12.0008C23.2505 12.1057 23.2284 12.2095 23.1858 12.3054H23.183Z" fill="#858585"/>
</g>
<defs>
<clipPath id="clip0_12_452">
<rect width="24" height="24" fill="white" transform="translate(0.000488281)"/>
</clipPath>
</defs>
</svg>
