<svg width="25" height="24" viewBox="0 0 25 24" fill="none" xmlns="http://www.w3.org/2000/svg">
<path d="M12.0033 2.16305C15.2098 2.16305 15.5862 2.17734 16.8535 2.23452C18.0255 2.28692 18.6592 2.48227 19.0832 2.64902C19.6454 2.86818 20.0457 3.12546 20.4649 3.54473C20.8842 3.964 21.1462 4.36421 21.3606 4.92642C21.5226 5.35045 21.7227 5.98412 21.7751 7.15617C21.8323 8.4235 21.8466 8.79989 21.8466 12.0064C21.8466 15.2128 21.8323 15.5892 21.7751 16.8565C21.7227 18.0286 21.5274 18.6623 21.3606 19.0863C21.1415 19.6485 20.8842 20.0487 20.4649 20.468C20.0457 20.8872 19.6454 21.1493 19.0832 21.3637C18.6592 21.5257 18.0255 21.7258 16.8535 21.7782C15.5862 21.8354 15.2098 21.8497 12.0033 21.8497C8.79684 21.8497 8.42045 21.8354 7.15312 21.7782C5.98107 21.7258 5.3474 21.5304 4.92336 21.3637C4.36116 21.1445 3.96095 20.8872 3.54168 20.468C3.12241 20.0487 2.86037 19.6485 2.64597 19.0863C2.48398 18.6623 2.28387 18.0286 2.23146 16.8565C2.17429 15.5892 2.16 15.2128 2.16 12.0064C2.16 8.79989 2.17429 8.4235 2.23146 7.15617C2.28387 5.98412 2.47921 5.35045 2.64597 4.92642C2.86513 4.36421 3.12241 3.964 3.54168 3.54473C3.96095 3.12546 4.36116 2.86342 4.92336 2.64902C5.3474 2.48703 5.98107 2.28692 7.15312 2.23452C8.42045 2.17258 8.80161 2.16305 12.0033 2.16305ZM12.0033 0C8.74444 0 8.33469 0.0142933 7.05306 0.0714664C5.7762 0.128639 4.90431 0.33351 4.142 0.628904C3.3511 0.933827 2.68408 1.34833 2.01706 2.01535C1.35004 2.68237 0.940301 3.35416 0.630614 4.14029C0.335219 4.90259 0.130349 5.77448 0.0731754 7.05611C0.0160023 8.33298 0.00170898 8.74272 0.00170898 12.0016C0.00170898 15.2605 0.0160023 15.6702 0.0731754 16.9518C0.130349 18.2287 0.335219 19.1006 0.630614 19.8677C0.935537 20.6585 1.35004 21.3256 2.01706 21.9926C2.68408 22.6596 3.35587 23.0693 4.142 23.379C4.90431 23.6744 5.7762 23.8793 7.05783 23.9365C8.33946 23.9936 8.74444 24.0079 12.0081 24.0079C15.2717 24.0079 15.6767 23.9936 16.9583 23.9365C18.2352 23.8793 19.1071 23.6744 19.8741 23.379C20.665 23.0741 21.3321 22.6596 21.9991 21.9926C22.6661 21.3256 23.0758 20.6538 23.3855 19.8677C23.6809 19.1053 23.8858 18.2335 23.943 16.9518C24.0001 15.6702 24.0144 15.2652 24.0144 12.0016C24.0144 8.73796 24.0001 8.33298 23.943 7.05135C23.8858 5.77448 23.6809 4.90259 23.3855 4.13552C23.0806 3.34463 22.6661 2.67761 21.9991 2.01059C21.3321 1.34357 20.6603 0.933827 19.8741 0.62414C19.1118 0.328745 18.2399 0.123875 16.9583 0.066702C15.6719 0.0142933 15.2622 0 12.0033 0Z" fill="black"/>
<path d="M12.0031 5.84082C8.60126 5.84082 5.83789 8.59942 5.83789 12.006C5.83789 15.4125 8.59649 18.1711 12.0031 18.1711C15.4096 18.1711 18.1682 15.4125 18.1682 12.006C18.1682 8.59942 15.4096 5.84082 12.0031 5.84082ZM12.0031 16.0033C9.79236 16.0033 8.00094 14.2119 8.00094 12.0012C8.00094 9.79053 9.79236 7.9991 12.0031 7.9991C14.2138 7.9991 16.0052 9.79053 16.0052 12.0012C16.0052 14.2119 14.2138 16.0033 12.0031 16.0033Z" fill="black"/>
<path d="M18.4113 7.03201C19.2059 7.03201 19.8501 6.38781 19.8501 5.59315C19.8501 4.7985 19.2059 4.1543 18.4113 4.1543C17.6166 4.1543 16.9724 4.7985 16.9724 5.59315C16.9724 6.38781 17.6166 7.03201 18.4113 7.03201Z" fill="black"/>
</svg>
