<svg width="30" height="31" viewBox="0 0 30 31" fill="none" xmlns="http://www.w3.org/2000/svg">
<path d="M29.506 27.6492L22.9179 21.0586C24.8932 18.4846 25.8155 15.2556 25.4975 12.0267C25.1796 8.79778 23.6452 5.81069 21.2058 3.67137C18.7663 1.53206 15.6044 0.400715 12.3615 0.506845C9.11854 0.612974 6.03738 1.94863 3.74304 4.24286C1.4487 6.5371 0.112979 9.61812 0.00684501 12.8609C-0.0992893 16.1037 1.03211 19.2655 3.17152 21.7048C5.31094 24.1441 8.29817 25.6784 11.5272 25.9963C14.7563 26.3143 17.9854 25.3921 20.5595 23.4168L27.1532 30.0116C27.3081 30.1664 27.4919 30.2893 27.6942 30.3731C27.8966 30.4569 28.1134 30.5 28.3324 30.5C28.5514 30.5 28.7682 30.4569 28.9706 30.3731C29.1729 30.2893 29.3567 30.1664 29.5116 30.0116C29.6664 29.8567 29.7893 29.6729 29.8731 29.4706C29.9569 29.2683 30 29.0515 30 28.8325C30 28.6135 29.9569 28.3966 29.8731 28.1943C29.7893 27.992 29.6664 27.8082 29.5116 27.6533L29.506 27.6492ZM3.35743 13.2903C3.35743 11.4246 3.91069 9.60081 4.94725 8.04957C5.9838 6.49832 7.4571 5.28928 9.18083 4.57532C10.9046 3.86136 12.8013 3.67455 14.6312 4.03853C16.4611 4.4025 18.142 5.3009 19.4613 6.62013C20.7806 7.93935 21.679 9.62015 22.043 11.45C22.407 13.2798 22.2202 15.1764 21.5062 16.9001C20.7922 18.6237 19.5831 20.097 18.0318 21.1335C16.4804 22.17 14.6566 22.7232 12.7908 22.7232C10.2897 22.7207 7.8918 21.726 6.12325 19.9575C4.3547 18.1891 3.36 15.7912 3.35743 13.2903Z" fill="black"/>
</svg>
