<svg width="21" height="22" viewBox="0 0 21 22" fill="none" xmlns="http://www.w3.org/2000/svg">
<path d="M20.6662 19.2107L16.214 14.7566C17.5489 13.017 18.1721 10.8349 17.9573 8.65268C17.7424 6.47051 16.7055 4.45177 15.057 3.00597C13.4084 1.56018 11.2716 0.795595 9.08008 0.86732C6.88853 0.939044 4.80631 1.84171 3.25582 3.3922C1.70533 4.94269 0.802669 7.0249 0.730944 9.21646C0.65922 11.408 1.4238 13.5448 2.8696 15.1933C4.31539 16.8419 6.33413 17.8788 8.5163 18.0936C10.6985 18.3085 12.8807 17.6853 14.6202 16.3504L19.0762 20.8072C19.1808 20.9119 19.3051 20.9949 19.4418 21.0515C19.5785 21.1082 19.7251 21.1373 19.873 21.1373C20.021 21.1373 20.1676 21.1082 20.3043 21.0515C20.441 20.9949 20.5653 20.9119 20.6699 20.8072C20.7746 20.7026 20.8576 20.5784 20.9142 20.4416C20.9708 20.3049 21 20.1583 21 20.0104C21 19.8624 20.9708 19.7158 20.9142 19.5791C20.8576 19.4424 20.7746 19.3181 20.6699 19.2135L20.6662 19.2107ZM2.99523 9.50661C2.99523 8.24575 3.36912 7.01321 4.06961 5.96485C4.77011 4.91648 5.76575 4.09939 6.93063 3.61688C8.09551 3.13437 9.37731 3.00812 10.6139 3.2541C11.8506 3.50008 12.9865 4.10724 13.878 4.9988C14.7696 5.89036 15.3768 7.02628 15.6227 8.26291C15.8687 9.49954 15.7425 10.7813 15.26 11.9462C14.7775 13.1111 13.9604 14.1067 12.912 14.8072C11.8636 15.5077 10.6311 15.8816 9.37023 15.8816C7.68001 15.8799 6.05951 15.2077 4.86435 14.0125C3.66918 12.8173 2.99697 11.1968 2.99523 9.50661Z" fill="#7C7C8A"/>
</svg>
