<svg width="32" height="33" viewBox="0 0 32 33" fill="none" xmlns="http://www.w3.org/2000/svg">
<path d="M16 23.6943L22.84 27.9006C23.0175 28.0083 23.2229 28.061 23.4303 28.052C23.6377 28.043 23.8378 27.9728 24.0053 27.8501C24.1728 27.7274 24.3002 27.5578 24.3713 27.3628C24.4425 27.1678 24.4542 26.956 24.405 26.7543L22.545 18.9056L28.6325 13.6556C28.7877 13.5193 28.8996 13.3405 28.9544 13.1414C29.0092 12.9422 29.0044 12.7314 28.9408 12.5349C28.8771 12.3384 28.7572 12.1649 28.5961 12.0357C28.4349 11.9065 28.2394 11.8274 28.0338 11.8081L20.045 11.1581L16.9675 3.70805C16.889 3.51585 16.7551 3.35137 16.5828 3.23559C16.4105 3.11982 16.2076 3.05798 16 3.05798C15.7924 3.05798 15.5895 3.11982 15.4172 3.23559C15.2449 3.35137 15.111 3.51585 15.0325 3.70805L11.955 11.1581L3.96625 11.8081C3.75921 11.8262 3.56212 11.905 3.39959 12.0346C3.23707 12.1641 3.11632 12.3387 3.05244 12.5365C2.98856 12.7342 2.98437 12.9465 3.04041 13.1466C3.09644 13.3468 3.21021 13.5259 3.3675 13.6618L9.455 18.9118L7.595 26.7543C7.54583 26.956 7.55756 27.1678 7.6287 27.3628C7.69984 27.5578 7.82721 27.7274 7.9947 27.8501C8.16219 27.9728 8.36228 28.043 8.5697 28.052C8.77711 28.061 8.98254 28.0083 9.16 27.9006L16 23.6943Z" fill="#FEA910" stroke="#FEA910" stroke-width="2" stroke-linecap="round" stroke-linejoin="round"/>
</svg>
