<svg width="25" height="20" viewBox="0 0 25 20" fill="none" xmlns="http://www.w3.org/2000/svg">
<path d="M8.33997 19.5502C17.21 19.5502 22.06 12.2002 22.06 5.8302C22.06 5.6202 22.06 5.4102 22.05 5.2102C22.99 4.5302 23.81 3.6802 24.46 2.7102C23.6 3.0902 22.67 3.3502 21.69 3.4702C22.69 2.8702 23.45 1.9302 23.81 0.800195C22.88 1.3502 21.85 1.7502 20.75 1.9702C19.87 1.0302 18.62 0.450195 17.23 0.450195C14.57 0.450195 12.41 2.6102 12.41 5.2702C12.41 5.6502 12.45 6.0202 12.54 6.3702C8.52997 6.1702 4.97997 4.2502 2.59997 1.3302C2.18997 2.0402 1.94997 2.8702 1.94997 3.7502C1.94997 5.4202 2.79997 6.9002 4.09997 7.7602C3.30997 7.7402 2.56997 7.5202 1.91997 7.1602C1.91997 7.1802 1.91997 7.2002 1.91997 7.2202C1.91997 9.5602 3.57997 11.5002 5.78997 11.9502C5.38997 12.0602 4.95997 12.1202 4.51997 12.1202C4.20997 12.1202 3.90997 12.0902 3.60997 12.0302C4.21997 13.9502 5.99997 15.3402 8.10997 15.3802C6.45997 16.6702 4.37997 17.4402 2.11997 17.4402C1.72997 17.4402 1.34997 17.4202 0.969971 17.3702C3.07997 18.7502 5.61997 19.5502 8.33997 19.5502Z" fill="black"/>
</svg>
